<mxfile host="app.diagrams.net" agent="Mozilla/5.0 (Windows NT 10.0; Win64; x64) AppleWebKit/537.36 (KHTML, like Gecko) Chrome/135.0.0.0 Safari/537.36" version="26.2.14" pages="3">
  <diagram name="Flowchart" id="TiC2IpgStkKDxIlHEL91">
    <mxGraphModel dx="2605" dy="2574" grid="1" gridSize="10" guides="1" tooltips="1" connect="1" arrows="1" fold="1" page="1" pageScale="1" pageWidth="827" pageHeight="1169" math="0" shadow="0">
      <root>
        <mxCell id="0" />
        <mxCell id="1" parent="0" />
        <mxCell id="3" value="Does it match password?" style="rhombus;strokeWidth=2;whiteSpace=wrap;" parent="1" vertex="1">
          <mxGeometry x="149" y="112" width="229" height="229" as="geometry" />
        </mxCell>
        <mxCell id="4" value="Show Error: &#39;Passwords do not match&#39;" style="whiteSpace=wrap;strokeWidth=2;" parent="1" vertex="1">
          <mxGeometry x="8" y="500" width="260" height="78" as="geometry" />
        </mxCell>
        <mxCell id="5" value="Return true" style="whiteSpace=wrap;strokeWidth=2;" parent="1" vertex="1">
          <mxGeometry x="318" y="512" width="142" height="54" as="geometry" />
        </mxCell>
        <mxCell id="6" value="Return false" style="whiteSpace=wrap;strokeWidth=2;" parent="1" vertex="1">
          <mxGeometry x="65" y="797" width="147" height="54" as="geometry" />
        </mxCell>
        <mxCell id="8" value="Is length â‰¥ 8 chars?" style="rhombus;strokeWidth=2;whiteSpace=wrap;" parent="1" vertex="1">
          <mxGeometry x="701" y="132" width="190" height="190" as="geometry" />
        </mxCell>
        <mxCell id="9" value="Show Error: &#39;Invalid password. Your password must be at least 8 characters long and include at least one special character.&#39;" style="whiteSpace=wrap;strokeWidth=2;" parent="1" vertex="1">
          <mxGeometry x="377" y="737" width="260" height="174" as="geometry" />
        </mxCell>
        <mxCell id="10" value="Contains special character?" style="rhombus;strokeWidth=2;whiteSpace=wrap;" parent="1" vertex="1">
          <mxGeometry x="826" y="414" width="250" height="250" as="geometry" />
        </mxCell>
        <mxCell id="11" value="Show Error: &#39;Invalid password. Your password must be at least 8 characters long and include at least one special character.&#39;" style="whiteSpace=wrap;strokeWidth=2;" parent="1" vertex="1">
          <mxGeometry x="687" y="737" width="260" height="174" as="geometry" />
        </mxCell>
        <mxCell id="12" value="Clear any errors" style="whiteSpace=wrap;strokeWidth=2;" parent="1" vertex="1">
          <mxGeometry x="997" y="797" width="175" height="54" as="geometry" />
        </mxCell>
        <mxCell id="13" value="Return true" style="whiteSpace=wrap;strokeWidth=2;" parent="1" vertex="1">
          <mxGeometry x="1013" y="961" width="142" height="54" as="geometry" />
        </mxCell>
        <mxCell id="14" value="Return false" style="whiteSpace=wrap;strokeWidth=2;" parent="1" vertex="1">
          <mxGeometry x="570" y="1020" width="147" height="54" as="geometry" />
        </mxCell>
        <mxCell id="15" value="" style="curved=1;startArrow=none;endArrow=block;entryX=0.5;entryY=0;exitX=0.5;exitY=1;exitDx=0;exitDy=0;" parent="1" source="5AREnXjGgZCJY-3SoID6-27" target="3" edge="1">
          <mxGeometry relative="1" as="geometry">
            <Array as="points" />
            <mxPoint x="270" y="50" as="sourcePoint" />
          </mxGeometry>
        </mxCell>
        <mxCell id="16" value="No" style="curved=1;startArrow=none;endArrow=block;exitX=0.08;exitY=1;entryX=0.5;entryY=0;" parent="1" source="3" target="4" edge="1">
          <mxGeometry relative="1" as="geometry">
            <Array as="points">
              <mxPoint x="170" y="390" />
            </Array>
          </mxGeometry>
        </mxCell>
        <mxCell id="17" value="Yes" style="curved=1;startArrow=none;endArrow=block;exitX=0.92;exitY=1;entryX=0.5;entryY=0;" parent="1" source="3" target="5" edge="1">
          <mxGeometry relative="1" as="geometry">
            <Array as="points">
              <mxPoint x="360" y="390" />
            </Array>
          </mxGeometry>
        </mxCell>
        <mxCell id="18" value="" style="curved=1;startArrow=none;endArrow=block;exitX=0.5;exitY=1;entryX=0.5;entryY=0;" parent="1" source="4" target="6" edge="1">
          <mxGeometry relative="1" as="geometry">
            <Array as="points" />
          </mxGeometry>
        </mxCell>
        <mxCell id="19" value="" style="curved=1;startArrow=none;endArrow=block;exitX=0.5;exitY=1;entryX=0.5;entryY=0;exitDx=0;exitDy=0;" parent="1" source="5AREnXjGgZCJY-3SoID6-62" target="8" edge="1">
          <mxGeometry relative="1" as="geometry">
            <Array as="points" />
            <mxPoint x="795.5000000000002" y="62" as="sourcePoint" />
          </mxGeometry>
        </mxCell>
        <mxCell id="20" value="No" style="curved=1;startArrow=none;endArrow=block;exitX=0;exitY=0.76;entryX=0.5;entryY=0;" parent="1" source="8" target="9" edge="1">
          <mxGeometry relative="1" as="geometry">
            <Array as="points">
              <mxPoint x="610" y="450" />
            </Array>
          </mxGeometry>
        </mxCell>
        <mxCell id="21" value="Yes" style="curved=1;startArrow=none;endArrow=block;exitX=1;exitY=0.99;entryX=0.5;entryY=0;" parent="1" source="8" target="10" edge="1">
          <mxGeometry relative="1" as="geometry">
            <Array as="points">
              <mxPoint x="951" y="378" />
            </Array>
          </mxGeometry>
        </mxCell>
        <mxCell id="22" value="No" style="curved=1;startArrow=none;endArrow=block;exitX=0.08;exitY=1;entryX=0.5;entryY=0;" parent="1" source="10" target="11" edge="1">
          <mxGeometry relative="1" as="geometry">
            <Array as="points">
              <mxPoint x="830" y="700" />
            </Array>
          </mxGeometry>
        </mxCell>
        <mxCell id="23" value="Yes" style="curved=1;startArrow=none;endArrow=block;exitX=0.91;exitY=1;entryX=0.5;entryY=0;" parent="1" source="10" target="12" edge="1">
          <mxGeometry relative="1" as="geometry">
            <Array as="points">
              <mxPoint x="1060" y="720" />
            </Array>
          </mxGeometry>
        </mxCell>
        <mxCell id="24" value="" style="curved=1;startArrow=none;endArrow=block;exitX=0.5;exitY=1;entryX=0.5;entryY=0;" parent="1" source="12" target="13" edge="1">
          <mxGeometry relative="1" as="geometry">
            <Array as="points" />
          </mxGeometry>
        </mxCell>
        <mxCell id="25" value="" style="curved=1;startArrow=none;endArrow=block;exitX=0.5;exitY=1;entryX=0;entryY=0.05;" parent="1" source="9" target="14" edge="1">
          <mxGeometry relative="1" as="geometry">
            <Array as="points">
              <mxPoint x="507" y="936" />
            </Array>
          </mxGeometry>
        </mxCell>
        <mxCell id="26" value="" style="curved=1;startArrow=none;endArrow=block;exitX=0.5;exitY=1;entryX=0.99;entryY=0.05;" parent="1" source="11" target="14" edge="1">
          <mxGeometry relative="1" as="geometry">
            <Array as="points">
              <mxPoint x="817" y="936" />
            </Array>
          </mxGeometry>
        </mxCell>
        <mxCell id="5AREnXjGgZCJY-3SoID6-27" value="Start confirmPassword" style="ellipse;whiteSpace=wrap;html=1;" parent="1" vertex="1">
          <mxGeometry x="203.5" y="-20" width="120" height="80" as="geometry" />
        </mxCell>
        <mxCell id="5AREnXjGgZCJY-3SoID6-30" value="Valid email format?" style="rhombus;strokeWidth=2;whiteSpace=wrap;" parent="1" vertex="1">
          <mxGeometry x="1418" y="104" width="193" height="193" as="geometry" />
        </mxCell>
        <mxCell id="5AREnXjGgZCJY-3SoID6-31" value="Show Error: &#39;Invalid email&#39;" style="whiteSpace=wrap;strokeWidth=2;" parent="1" vertex="1">
          <mxGeometry x="1270" y="370" width="246" height="54" as="geometry" />
        </mxCell>
        <mxCell id="5AREnXjGgZCJY-3SoID6-32" value="Return true" style="whiteSpace=wrap;strokeWidth=2;" parent="1" vertex="1">
          <mxGeometry x="1566" y="370" width="142" height="54" as="geometry" />
        </mxCell>
        <mxCell id="5AREnXjGgZCJY-3SoID6-33" value="Return false" style="whiteSpace=wrap;strokeWidth=2;" parent="1" vertex="1">
          <mxGeometry x="1320" y="474" width="147" height="54" as="geometry" />
        </mxCell>
        <mxCell id="5AREnXjGgZCJY-3SoID6-34" value="" style="curved=1;startArrow=none;endArrow=block;exitX=0.5;exitY=1;entryX=0.5;entryY=0;exitDx=0;exitDy=0;" parent="1" source="5AREnXjGgZCJY-3SoID6-63" target="5AREnXjGgZCJY-3SoID6-30" edge="1">
          <mxGeometry relative="1" as="geometry">
            <Array as="points" />
            <mxPoint x="1514.4999999999995" y="54.00000000000023" as="sourcePoint" />
          </mxGeometry>
        </mxCell>
        <mxCell id="5AREnXjGgZCJY-3SoID6-35" value="No" style="curved=1;startArrow=none;endArrow=block;exitX=0.04;exitY=1;entryX=0.5;entryY=-0.01;" parent="1" source="5AREnXjGgZCJY-3SoID6-30" target="5AREnXjGgZCJY-3SoID6-31" edge="1">
          <mxGeometry relative="1" as="geometry">
            <Array as="points">
              <mxPoint x="1393" y="333" />
            </Array>
          </mxGeometry>
        </mxCell>
        <mxCell id="5AREnXjGgZCJY-3SoID6-36" value="Yes" style="curved=1;startArrow=none;endArrow=block;exitX=0.96;exitY=1;entryX=0.5;entryY=-0.01;" parent="1" source="5AREnXjGgZCJY-3SoID6-30" target="5AREnXjGgZCJY-3SoID6-32" edge="1">
          <mxGeometry relative="1" as="geometry">
            <Array as="points">
              <mxPoint x="1637" y="333" />
            </Array>
          </mxGeometry>
        </mxCell>
        <mxCell id="5AREnXjGgZCJY-3SoID6-37" value="" style="curved=1;startArrow=none;endArrow=block;exitX=0.5;exitY=0.99;entryX=0.49;entryY=-0.01;" parent="1" source="5AREnXjGgZCJY-3SoID6-31" target="5AREnXjGgZCJY-3SoID6-33" edge="1">
          <mxGeometry relative="1" as="geometry">
            <Array as="points" />
          </mxGeometry>
        </mxCell>
        <mxCell id="5AREnXjGgZCJY-3SoID6-39" value="Only contain char A-Za-z?" style="rhombus;strokeWidth=2;whiteSpace=wrap;" parent="1" vertex="1">
          <mxGeometry x="197" y="-666" width="236" height="236" as="geometry" />
        </mxCell>
        <mxCell id="5AREnXjGgZCJY-3SoID6-40" value="Show Error: &#39;Invalid username&#39;" style="whiteSpace=wrap;strokeWidth=2;" parent="1" vertex="1">
          <mxGeometry x="60" y="-357" width="260" height="78" as="geometry" />
        </mxCell>
        <mxCell id="5AREnXjGgZCJY-3SoID6-41" value="Return true" style="whiteSpace=wrap;strokeWidth=2;" parent="1" vertex="1">
          <mxGeometry x="370" y="-345" width="142" height="54" as="geometry" />
        </mxCell>
        <mxCell id="5AREnXjGgZCJY-3SoID6-42" value="Return false" style="whiteSpace=wrap;strokeWidth=2;" parent="1" vertex="1">
          <mxGeometry x="117" y="-229" width="147" height="54" as="geometry" />
        </mxCell>
        <mxCell id="5AREnXjGgZCJY-3SoID6-43" value="" style="curved=1;startArrow=none;endArrow=block;exitX=0.5;exitY=1;entryX=0.5;entryY=0;exitDx=0;exitDy=0;" parent="1" source="5AREnXjGgZCJY-3SoID6-59" target="5AREnXjGgZCJY-3SoID6-39" edge="1">
          <mxGeometry relative="1" as="geometry">
            <Array as="points" />
            <mxPoint x="315" y="-720" as="sourcePoint" />
          </mxGeometry>
        </mxCell>
        <mxCell id="5AREnXjGgZCJY-3SoID6-44" value="No" style="curved=1;startArrow=none;endArrow=block;exitX=0.1;exitY=1;entryX=0.5;entryY=0;" parent="1" source="5AREnXjGgZCJY-3SoID6-39" target="5AREnXjGgZCJY-3SoID6-40" edge="1">
          <mxGeometry relative="1" as="geometry">
            <Array as="points" />
          </mxGeometry>
        </mxCell>
        <mxCell id="5AREnXjGgZCJY-3SoID6-45" value="Yes" style="curved=1;startArrow=none;endArrow=block;exitX=0.91;exitY=1;entryX=0.5;entryY=0;" parent="1" source="5AREnXjGgZCJY-3SoID6-39" target="5AREnXjGgZCJY-3SoID6-41" edge="1">
          <mxGeometry relative="1" as="geometry">
            <Array as="points" />
          </mxGeometry>
        </mxCell>
        <mxCell id="5AREnXjGgZCJY-3SoID6-46" value="" style="curved=1;startArrow=none;endArrow=block;exitX=0.5;exitY=1;entryX=0.5;entryY=0;" parent="1" source="5AREnXjGgZCJY-3SoID6-40" target="5AREnXjGgZCJY-3SoID6-42" edge="1">
          <mxGeometry relative="1" as="geometry">
            <Array as="points" />
          </mxGeometry>
        </mxCell>
        <mxCell id="5AREnXjGgZCJY-3SoID6-59" value="Start &lt;br&gt;validate Username" style="ellipse;whiteSpace=wrap;html=1;" parent="1" vertex="1">
          <mxGeometry x="242.5" y="-810" width="145" height="80" as="geometry" />
        </mxCell>
        <mxCell id="5AREnXjGgZCJY-3SoID6-62" value="Start validatePassword" style="ellipse;whiteSpace=wrap;html=1;" parent="1" vertex="1">
          <mxGeometry x="736" y="-13" width="120" height="80" as="geometry" />
        </mxCell>
        <mxCell id="5AREnXjGgZCJY-3SoID6-63" value="Start validateEmail" style="ellipse;whiteSpace=wrap;html=1;" parent="1" vertex="1">
          <mxGeometry x="1454.5" y="-13" width="120" height="80" as="geometry" />
        </mxCell>
        <mxCell id="5AREnXjGgZCJY-3SoID6-64" value="&lt;span style=&quot;text-align: left;&quot;&gt;+validateUsername() : boolean&lt;/span&gt;" style="text;html=1;align=center;verticalAlign=middle;resizable=0;points=[];autosize=1;strokeColor=none;fillColor=none;fontSize=19;fontStyle=1" parent="1" vertex="1">
          <mxGeometry x="190" y="-860" width="280" height="40" as="geometry" />
        </mxCell>
        <mxCell id="5AREnXjGgZCJY-3SoID6-65" value="&lt;span style=&quot;text-align: left;&quot;&gt;&lt;font style=&quot;font-size: 16px;&quot;&gt;&lt;b&gt;+validateEmail() : boolean&lt;/b&gt;&lt;/font&gt;&lt;/span&gt;" style="text;html=1;align=center;verticalAlign=middle;resizable=0;points=[];autosize=1;strokeColor=none;fillColor=none;" parent="1" vertex="1">
          <mxGeometry x="1404.5" y="-55" width="220" height="30" as="geometry" />
        </mxCell>
        <mxCell id="5AREnXjGgZCJY-3SoID6-66" value="&lt;span style=&quot;color: rgb(0, 0, 0); font-family: Helvetica; font-style: normal; font-variant-ligatures: normal; font-variant-caps: normal; letter-spacing: normal; orphans: 2; text-align: left; text-indent: 0px; text-transform: none; widows: 2; word-spacing: 0px; -webkit-text-stroke-width: 0px; white-space: nowrap; background-color: rgb(236, 236, 236); text-decoration-thickness: initial; text-decoration-style: initial; text-decoration-color: initial; float: none; display: inline !important;&quot;&gt;+validatePassword() : boolean&lt;/span&gt;" style="text;whiteSpace=wrap;html=1;fontSize=18;fontStyle=1" parent="1" vertex="1">
          <mxGeometry x="149" y="-60" width="200" height="40" as="geometry" />
        </mxCell>
        <mxCell id="5AREnXjGgZCJY-3SoID6-67" value="&lt;span style=&quot;text-align: left;&quot;&gt;&lt;font style=&quot;font-size: 16px;&quot;&gt;&lt;b&gt;+confirmPassword() : boolean&lt;/b&gt;&lt;/font&gt;&lt;/span&gt;" style="text;html=1;align=center;verticalAlign=middle;resizable=0;points=[];autosize=1;strokeColor=none;fillColor=none;" parent="1" vertex="1">
          <mxGeometry x="671" y="-60" width="250" height="30" as="geometry" />
        </mxCell>
      </root>
    </mxGraphModel>
  </diagram>
  <diagram id="_Z7oyEhowxdyQn_-mzC-" name="Class Diagram">
    <mxGraphModel dx="2719" dy="1194" grid="1" gridSize="10" guides="1" tooltips="1" connect="1" arrows="1" fold="1" page="1" pageScale="1" pageWidth="827" pageHeight="1169" math="0" shadow="0">
      <root>
        <mxCell id="0" />
        <mxCell id="1" parent="0" />
        <mxCell id="78MG3FbwFJ5nW1DFP1lB-1" value="UserRegistrationForm" style="swimlane;fontStyle=1;align=center;verticalAlign=top;childLayout=stackLayout;horizontal=1;startSize=33.142857142857146;horizontalStack=0;resizeParent=1;resizeParentMax=0;resizeLast=0;collapsible=0;marginBottom=0;strokeWidth=3;" vertex="1" parent="1">
          <mxGeometry x="-630" y="390" width="410" height="371.1428571428571" as="geometry" />
        </mxCell>
        <mxCell id="78MG3FbwFJ5nW1DFP1lB-2" value="String username" style="text;strokeColor=none;fillColor=none;align=left;verticalAlign=top;spacingLeft=4;spacingRight=4;overflow=hidden;rotatable=0;points=[[0,0.5],[1,0.5]];portConstraint=eastwest;" vertex="1" parent="78MG3FbwFJ5nW1DFP1lB-1">
          <mxGeometry y="33.142857142857146" width="410" height="33" as="geometry" />
        </mxCell>
        <mxCell id="78MG3FbwFJ5nW1DFP1lB-3" value="String email" style="text;strokeColor=none;fillColor=none;align=left;verticalAlign=top;spacingLeft=4;spacingRight=4;overflow=hidden;rotatable=0;points=[[0,0.5],[1,0.5]];portConstraint=eastwest;" vertex="1" parent="78MG3FbwFJ5nW1DFP1lB-1">
          <mxGeometry y="66.14285714285714" width="410" height="33" as="geometry" />
        </mxCell>
        <mxCell id="78MG3FbwFJ5nW1DFP1lB-4" value="String password" style="text;strokeColor=none;fillColor=none;align=left;verticalAlign=top;spacingLeft=4;spacingRight=4;overflow=hidden;rotatable=0;points=[[0,0.5],[1,0.5]];portConstraint=eastwest;" vertex="1" parent="78MG3FbwFJ5nW1DFP1lB-1">
          <mxGeometry y="99.14285714285714" width="410" height="33" as="geometry" />
        </mxCell>
        <mxCell id="78MG3FbwFJ5nW1DFP1lB-5" value="String confirmPassword" style="text;strokeColor=none;fillColor=none;align=left;verticalAlign=top;spacingLeft=4;spacingRight=4;overflow=hidden;rotatable=0;points=[[0,0.5],[1,0.5]];portConstraint=eastwest;" vertex="1" parent="78MG3FbwFJ5nW1DFP1lB-1">
          <mxGeometry y="132.14285714285714" width="410" height="33" as="geometry" />
        </mxCell>
        <mxCell id="78MG3FbwFJ5nW1DFP1lB-6" style="line;strokeWidth=1;fillColor=none;align=left;verticalAlign=middle;spacingTop=-1;spacingLeft=3;spacingRight=3;rotatable=0;labelPosition=right;points=[];portConstraint=eastwest;strokeColor=inherit;" vertex="1" parent="78MG3FbwFJ5nW1DFP1lB-1">
          <mxGeometry y="165.14285714285714" width="410" height="8" as="geometry" />
        </mxCell>
        <mxCell id="78MG3FbwFJ5nW1DFP1lB-7" value="a validation forÂ  required field will be HTML attribute &quot;required&quot;Â " style="text;strokeColor=none;fillColor=none;align=left;verticalAlign=top;spacingLeft=4;spacingRight=4;overflow=hidden;rotatable=0;points=[[0,0.5],[1,0.5]];portConstraint=eastwest;" vertex="1" parent="78MG3FbwFJ5nW1DFP1lB-1">
          <mxGeometry y="173.14285714285714" width="410" height="33" as="geometry" />
        </mxCell>
        <mxCell id="78MG3FbwFJ5nW1DFP1lB-8" value="+validateUsername() : boolean" style="text;strokeColor=none;fillColor=none;align=left;verticalAlign=top;spacingLeft=4;spacingRight=4;overflow=hidden;rotatable=0;points=[[0,0.5],[1,0.5]];portConstraint=eastwest;" vertex="1" parent="78MG3FbwFJ5nW1DFP1lB-1">
          <mxGeometry y="206.14285714285714" width="410" height="33" as="geometry" />
        </mxCell>
        <mxCell id="78MG3FbwFJ5nW1DFP1lB-9" value="+validateEmail() : boolean" style="text;strokeColor=none;fillColor=none;align=left;verticalAlign=top;spacingLeft=4;spacingRight=4;overflow=hidden;rotatable=0;points=[[0,0.5],[1,0.5]];portConstraint=eastwest;" vertex="1" parent="78MG3FbwFJ5nW1DFP1lB-1">
          <mxGeometry y="239.14285714285714" width="410" height="33" as="geometry" />
        </mxCell>
        <mxCell id="78MG3FbwFJ5nW1DFP1lB-10" value="+validatePassword() : boolean" style="text;strokeColor=none;fillColor=none;align=left;verticalAlign=top;spacingLeft=4;spacingRight=4;overflow=hidden;rotatable=0;points=[[0,0.5],[1,0.5]];portConstraint=eastwest;" vertex="1" parent="78MG3FbwFJ5nW1DFP1lB-1">
          <mxGeometry y="272.1428571428571" width="410" height="33" as="geometry" />
        </mxCell>
        <mxCell id="78MG3FbwFJ5nW1DFP1lB-11" value="+confirmPassword() : boolean" style="text;strokeColor=none;fillColor=none;align=left;verticalAlign=top;spacingLeft=4;spacingRight=4;overflow=hidden;rotatable=0;points=[[0,0.5],[1,0.5]];portConstraint=eastwest;" vertex="1" parent="78MG3FbwFJ5nW1DFP1lB-1">
          <mxGeometry y="305.1428571428571" width="410" height="33" as="geometry" />
        </mxCell>
        <mxCell id="78MG3FbwFJ5nW1DFP1lB-12" value="+submit() : Promis&lt;void&gt;" style="text;strokeColor=none;fillColor=none;align=left;verticalAlign=top;spacingLeft=4;spacingRight=4;overflow=hidden;rotatable=0;points=[[0,0.5],[1,0.5]];portConstraint=eastwest;" vertex="1" parent="78MG3FbwFJ5nW1DFP1lB-1">
          <mxGeometry y="338.1428571428571" width="410" height="33" as="geometry" />
        </mxCell>
      </root>
    </mxGraphModel>
  </diagram>
  <diagram id="naqcvSF6npkMQBhTy1Az" name="Sequence Diagram ">
    <mxGraphModel dx="1042" dy="562" grid="1" gridSize="10" guides="1" tooltips="1" connect="1" arrows="1" fold="1" page="1" pageScale="1" pageWidth="827" pageHeight="1169" math="0" shadow="0">
      <root>
        <mxCell id="0" />
        <mxCell id="1" parent="0" />
        <mxCell id="MnAWivIZl3yRyN72ygQK-1" value="Home Page" style="rounded=1;whiteSpace=wrap;html=1;" vertex="1" parent="1">
          <mxGeometry x="320" y="80" width="120" height="60" as="geometry" />
        </mxCell>
        <mxCell id="MnAWivIZl3yRyN72ygQK-2" value="Registration Form" style="rounded=1;whiteSpace=wrap;html=1;" vertex="1" parent="1">
          <mxGeometry x="110" y="80" width="120" height="60" as="geometry" />
        </mxCell>
        <mxCell id="MnAWivIZl3yRyN72ygQK-3" value="" style="endArrow=none;html=1;rounded=0;" edge="1" parent="1">
          <mxGeometry width="50" height="50" relative="1" as="geometry">
            <mxPoint x="170" y="400" as="sourcePoint" />
            <mxPoint x="170" y="140" as="targetPoint" />
          </mxGeometry>
        </mxCell>
        <mxCell id="MnAWivIZl3yRyN72ygQK-4" value="" style="endArrow=none;html=1;rounded=0;" edge="1" parent="1">
          <mxGeometry width="50" height="50" relative="1" as="geometry">
            <mxPoint x="380" y="400" as="sourcePoint" />
            <mxPoint x="380" y="140" as="targetPoint" />
          </mxGeometry>
        </mxCell>
        <mxCell id="MnAWivIZl3yRyN72ygQK-5" value="" style="endArrow=classic;html=1;rounded=0;" edge="1" parent="1">
          <mxGeometry width="50" height="50" relative="1" as="geometry">
            <mxPoint x="120" y="178" as="sourcePoint" />
            <mxPoint x="170" y="188" as="targetPoint" />
          </mxGeometry>
        </mxCell>
        <mxCell id="MnAWivIZl3yRyN72ygQK-6" value="Validate UserName" style="text;html=1;align=center;verticalAlign=middle;resizable=0;points=[];autosize=1;strokeColor=none;fillColor=none;" vertex="1" parent="1">
          <mxGeometry x="55" y="148" width="130" height="30" as="geometry" />
        </mxCell>
        <mxCell id="MnAWivIZl3yRyN72ygQK-7" value="ValidateEmail" style="text;html=1;align=center;verticalAlign=middle;resizable=0;points=[];autosize=1;strokeColor=none;fillColor=none;" vertex="1" parent="1">
          <mxGeometry x="65" y="200" width="100" height="30" as="geometry" />
        </mxCell>
        <mxCell id="MnAWivIZl3yRyN72ygQK-8" value="" style="endArrow=classic;html=1;rounded=0;" edge="1" parent="1">
          <mxGeometry width="50" height="50" relative="1" as="geometry">
            <mxPoint x="120" y="230" as="sourcePoint" />
            <mxPoint x="170" y="240" as="targetPoint" />
          </mxGeometry>
        </mxCell>
        <mxCell id="MnAWivIZl3yRyN72ygQK-9" value="ValidatePassword" style="text;html=1;align=center;verticalAlign=middle;resizable=0;points=[];autosize=1;strokeColor=none;fillColor=none;" vertex="1" parent="1">
          <mxGeometry x="41" y="248" width="120" height="30" as="geometry" />
        </mxCell>
        <mxCell id="MnAWivIZl3yRyN72ygQK-10" value="" style="endArrow=classic;html=1;rounded=0;" edge="1" parent="1">
          <mxGeometry width="50" height="50" relative="1" as="geometry">
            <mxPoint x="120" y="277" as="sourcePoint" />
            <mxPoint x="170" y="287" as="targetPoint" />
          </mxGeometry>
        </mxCell>
        <mxCell id="MnAWivIZl3yRyN72ygQK-11" value="confirmPassword" style="text;html=1;align=center;verticalAlign=middle;resizable=0;points=[];autosize=1;strokeColor=none;fillColor=none;" vertex="1" parent="1">
          <mxGeometry x="50" y="288" width="120" height="30" as="geometry" />
        </mxCell>
        <mxCell id="MnAWivIZl3yRyN72ygQK-12" value="" style="endArrow=classic;html=1;rounded=0;" edge="1" parent="1">
          <mxGeometry width="50" height="50" relative="1" as="geometry">
            <mxPoint x="120" y="318" as="sourcePoint" />
            <mxPoint x="170" y="328" as="targetPoint" />
          </mxGeometry>
        </mxCell>
        <mxCell id="MnAWivIZl3yRyN72ygQK-13" value="" style="endArrow=classic;html=1;rounded=0;" edge="1" parent="1">
          <mxGeometry width="50" height="50" relative="1" as="geometry">
            <mxPoint x="180" y="380" as="sourcePoint" />
            <mxPoint x="360" y="382" as="targetPoint" />
          </mxGeometry>
        </mxCell>
        <mxCell id="MnAWivIZl3yRyN72ygQK-14" value="html to HomePage" style="text;html=1;align=center;verticalAlign=middle;resizable=0;points=[];autosize=1;strokeColor=none;fillColor=none;" vertex="1" parent="1">
          <mxGeometry x="215" y="350" width="120" height="30" as="geometry" />
        </mxCell>
        <mxCell id="MnAWivIZl3yRyN72ygQK-15" value="Home Page" style="rounded=1;whiteSpace=wrap;html=1;" vertex="1" parent="1">
          <mxGeometry x="430" y="490" width="120" height="60" as="geometry" />
        </mxCell>
        <mxCell id="MnAWivIZl3yRyN72ygQK-16" value="Registration Form" style="rounded=1;whiteSpace=wrap;html=1;" vertex="1" parent="1">
          <mxGeometry x="220" y="490" width="120" height="60" as="geometry" />
        </mxCell>
        <mxCell id="MnAWivIZl3yRyN72ygQK-17" value="" style="endArrow=none;html=1;rounded=0;" edge="1" parent="1">
          <mxGeometry width="50" height="50" relative="1" as="geometry">
            <mxPoint x="280" y="680" as="sourcePoint" />
            <mxPoint x="280" y="550" as="targetPoint" />
          </mxGeometry>
        </mxCell>
        <mxCell id="MnAWivIZl3yRyN72ygQK-18" value="" style="endArrow=none;html=1;rounded=0;" edge="1" parent="1">
          <mxGeometry width="50" height="50" relative="1" as="geometry">
            <mxPoint x="490" y="680" as="sourcePoint" />
            <mxPoint x="490" y="550" as="targetPoint" />
          </mxGeometry>
        </mxCell>
        <mxCell id="MnAWivIZl3yRyN72ygQK-19" value="" style="endArrow=classic;html=1;rounded=0;" edge="1" parent="1">
          <mxGeometry width="50" height="50" relative="1" as="geometry">
            <mxPoint x="230" y="588" as="sourcePoint" />
            <mxPoint x="280" y="598" as="targetPoint" />
          </mxGeometry>
        </mxCell>
        <mxCell id="MnAWivIZl3yRyN72ygQK-20" value="ValidateUserName: returns False" style="text;html=1;align=center;verticalAlign=middle;resizable=0;points=[];autosize=1;strokeColor=none;fillColor=none;" vertex="1" parent="1">
          <mxGeometry x="80" y="558" width="200" height="30" as="geometry" />
        </mxCell>
        <mxCell id="MnAWivIZl3yRyN72ygQK-21" value="" style="curved=1;endArrow=classic;html=1;rounded=0;" edge="1" parent="1">
          <mxGeometry width="50" height="50" relative="1" as="geometry">
            <mxPoint x="290" y="608" as="sourcePoint" />
            <mxPoint x="280" y="588" as="targetPoint" />
            <Array as="points">
              <mxPoint x="300" y="618" />
              <mxPoint x="340" y="588" />
              <mxPoint x="310" y="588" />
              <mxPoint x="280" y="588" />
              <mxPoint x="290" y="588" />
            </Array>
          </mxGeometry>
        </mxCell>
        <mxCell id="MnAWivIZl3yRyN72ygQK-22" value="Home Page" style="rounded=1;whiteSpace=wrap;html=1;" vertex="1" parent="1">
          <mxGeometry x="430" y="750" width="120" height="60" as="geometry" />
        </mxCell>
        <mxCell id="MnAWivIZl3yRyN72ygQK-23" value="Registration Form" style="rounded=1;whiteSpace=wrap;html=1;" vertex="1" parent="1">
          <mxGeometry x="220" y="750" width="120" height="60" as="geometry" />
        </mxCell>
        <mxCell id="MnAWivIZl3yRyN72ygQK-24" value="" style="endArrow=none;html=1;rounded=0;" edge="1" parent="1">
          <mxGeometry width="50" height="50" relative="1" as="geometry">
            <mxPoint x="280" y="940" as="sourcePoint" />
            <mxPoint x="280" y="810" as="targetPoint" />
          </mxGeometry>
        </mxCell>
        <mxCell id="MnAWivIZl3yRyN72ygQK-25" value="" style="endArrow=none;html=1;rounded=0;" edge="1" parent="1">
          <mxGeometry width="50" height="50" relative="1" as="geometry">
            <mxPoint x="490" y="940" as="sourcePoint" />
            <mxPoint x="490" y="810" as="targetPoint" />
          </mxGeometry>
        </mxCell>
        <mxCell id="MnAWivIZl3yRyN72ygQK-26" value="" style="endArrow=classic;html=1;rounded=0;" edge="1" parent="1">
          <mxGeometry width="50" height="50" relative="1" as="geometry">
            <mxPoint x="230" y="848" as="sourcePoint" />
            <mxPoint x="280" y="858" as="targetPoint" />
          </mxGeometry>
        </mxCell>
        <mxCell id="MnAWivIZl3yRyN72ygQK-27" value="ValidateUserName: returns True" style="text;html=1;align=center;verticalAlign=middle;resizable=0;points=[];autosize=1;strokeColor=none;fillColor=none;" vertex="1" parent="1">
          <mxGeometry x="85" y="818" width="190" height="30" as="geometry" />
        </mxCell>
        <mxCell id="MnAWivIZl3yRyN72ygQK-28" value="" style="curved=1;endArrow=classic;html=1;rounded=0;" edge="1" parent="1">
          <mxGeometry width="50" height="50" relative="1" as="geometry">
            <mxPoint x="295" y="895" as="sourcePoint" />
            <mxPoint x="285" y="875" as="targetPoint" />
            <Array as="points">
              <mxPoint x="305" y="905" />
              <mxPoint x="345" y="875" />
              <mxPoint x="315" y="875" />
              <mxPoint x="285" y="875" />
              <mxPoint x="295" y="875" />
            </Array>
          </mxGeometry>
        </mxCell>
        <mxCell id="MnAWivIZl3yRyN72ygQK-29" value="&lt;span style=&quot;color: rgb(0, 0, 0); font-family: Helvetica; font-size: 12px; font-style: normal; font-variant-ligatures: normal; font-variant-caps: normal; font-weight: 400; letter-spacing: normal; orphans: 2; text-align: center; text-indent: 0px; text-transform: none; widows: 2; word-spacing: 0px; -webkit-text-stroke-width: 0px; white-space: nowrap; background-color: rgb(236, 236, 236); text-decoration-thickness: initial; text-decoration-style: initial; text-decoration-color: initial; display: inline !important; float: none;&quot;&gt;ValidatePassword: returns False&lt;/span&gt;" style="text;whiteSpace=wrap;html=1;" vertex="1" parent="1">
          <mxGeometry x="85" y="870" width="200" height="40" as="geometry" />
        </mxCell>
        <mxCell id="MnAWivIZl3yRyN72ygQK-30" value="Home Page" style="rounded=1;whiteSpace=wrap;html=1;" vertex="1" parent="1">
          <mxGeometry x="430" y="990" width="120" height="60" as="geometry" />
        </mxCell>
        <mxCell id="MnAWivIZl3yRyN72ygQK-31" value="Registration Form" style="rounded=1;whiteSpace=wrap;html=1;" vertex="1" parent="1">
          <mxGeometry x="220" y="990" width="120" height="60" as="geometry" />
        </mxCell>
        <mxCell id="MnAWivIZl3yRyN72ygQK-32" value="" style="endArrow=none;html=1;rounded=0;" edge="1" parent="1">
          <mxGeometry width="50" height="50" relative="1" as="geometry">
            <mxPoint x="280" y="1200" as="sourcePoint" />
            <mxPoint x="280" y="1050" as="targetPoint" />
          </mxGeometry>
        </mxCell>
        <mxCell id="MnAWivIZl3yRyN72ygQK-33" value="" style="endArrow=none;html=1;rounded=0;" edge="1" parent="1">
          <mxGeometry width="50" height="50" relative="1" as="geometry">
            <mxPoint x="490" y="1200" as="sourcePoint" />
            <mxPoint x="490" y="1050" as="targetPoint" />
          </mxGeometry>
        </mxCell>
        <mxCell id="MnAWivIZl3yRyN72ygQK-34" value="" style="endArrow=classic;html=1;rounded=0;" edge="1" parent="1">
          <mxGeometry width="50" height="50" relative="1" as="geometry">
            <mxPoint x="230" y="1088" as="sourcePoint" />
            <mxPoint x="280" y="1098" as="targetPoint" />
          </mxGeometry>
        </mxCell>
        <mxCell id="MnAWivIZl3yRyN72ygQK-35" value="ValidateUserName: returns True" style="text;html=1;align=center;verticalAlign=middle;resizable=0;points=[];autosize=1;strokeColor=none;fillColor=none;" vertex="1" parent="1">
          <mxGeometry x="85" y="1058" width="190" height="30" as="geometry" />
        </mxCell>
        <mxCell id="MnAWivIZl3yRyN72ygQK-36" value="" style="curved=1;endArrow=classic;html=1;rounded=0;" edge="1" parent="1">
          <mxGeometry width="50" height="50" relative="1" as="geometry">
            <mxPoint x="298" y="1175" as="sourcePoint" />
            <mxPoint x="288" y="1155" as="targetPoint" />
            <Array as="points">
              <mxPoint x="308" y="1185" />
              <mxPoint x="348" y="1155" />
              <mxPoint x="318" y="1155" />
              <mxPoint x="288" y="1155" />
              <mxPoint x="298" y="1155" />
            </Array>
          </mxGeometry>
        </mxCell>
        <mxCell id="MnAWivIZl3yRyN72ygQK-37" value="&lt;span style=&quot;color: rgb(0, 0, 0); font-family: Helvetica; font-size: 12px; font-style: normal; font-variant-ligatures: normal; font-variant-caps: normal; font-weight: 400; letter-spacing: normal; orphans: 2; text-align: center; text-indent: 0px; text-transform: none; widows: 2; word-spacing: 0px; -webkit-text-stroke-width: 0px; white-space: nowrap; background-color: rgb(236, 236, 236); text-decoration-thickness: initial; text-decoration-style: initial; text-decoration-color: initial; display: inline !important; float: none;&quot;&gt;ValidatePassword: returns True&lt;/span&gt;" style="text;whiteSpace=wrap;html=1;" vertex="1" parent="1">
          <mxGeometry x="85" y="1110" width="200" height="40" as="geometry" />
        </mxCell>
        <mxCell id="MnAWivIZl3yRyN72ygQK-38" value="&lt;span style=&quot;color: rgb(0, 0, 0); font-family: Helvetica; font-size: 12px; font-style: normal; font-variant-ligatures: normal; font-variant-caps: normal; font-weight: 400; letter-spacing: normal; orphans: 2; text-align: center; text-indent: 0px; text-transform: none; widows: 2; word-spacing: 0px; -webkit-text-stroke-width: 0px; white-space: nowrap; background-color: rgb(236, 236, 236); text-decoration-thickness: initial; text-decoration-style: initial; text-decoration-color: initial; display: inline !important; float: none;&quot;&gt;ValidateEmail: returns False&lt;/span&gt;" style="text;whiteSpace=wrap;html=1;" vertex="1" parent="1">
          <mxGeometry x="110" y="1150" width="200" height="40" as="geometry" />
        </mxCell>
        <mxCell id="MnAWivIZl3yRyN72ygQK-39" value="Home Page" style="rounded=1;whiteSpace=wrap;html=1;" vertex="1" parent="1">
          <mxGeometry x="425" y="1230" width="120" height="60" as="geometry" />
        </mxCell>
        <mxCell id="MnAWivIZl3yRyN72ygQK-40" value="Registration Form" style="rounded=1;whiteSpace=wrap;html=1;" vertex="1" parent="1">
          <mxGeometry x="215" y="1230" width="120" height="60" as="geometry" />
        </mxCell>
        <mxCell id="MnAWivIZl3yRyN72ygQK-41" value="" style="endArrow=none;html=1;rounded=0;" edge="1" parent="1">
          <mxGeometry width="50" height="50" relative="1" as="geometry">
            <mxPoint x="270" y="1480" as="sourcePoint" />
            <mxPoint x="275" y="1290" as="targetPoint" />
          </mxGeometry>
        </mxCell>
        <mxCell id="MnAWivIZl3yRyN72ygQK-42" value="" style="endArrow=none;html=1;rounded=0;" edge="1" parent="1">
          <mxGeometry width="50" height="50" relative="1" as="geometry">
            <mxPoint x="485" y="1480" as="sourcePoint" />
            <mxPoint x="485" y="1290" as="targetPoint" />
          </mxGeometry>
        </mxCell>
        <mxCell id="MnAWivIZl3yRyN72ygQK-43" value="" style="endArrow=classic;html=1;rounded=0;" edge="1" parent="1">
          <mxGeometry width="50" height="50" relative="1" as="geometry">
            <mxPoint x="225" y="1328" as="sourcePoint" />
            <mxPoint x="275" y="1338" as="targetPoint" />
          </mxGeometry>
        </mxCell>
        <mxCell id="MnAWivIZl3yRyN72ygQK-44" value="ValidateUserName: returns True" style="text;html=1;align=center;verticalAlign=middle;resizable=0;points=[];autosize=1;strokeColor=none;fillColor=none;" vertex="1" parent="1">
          <mxGeometry x="80" y="1298" width="190" height="30" as="geometry" />
        </mxCell>
        <mxCell id="MnAWivIZl3yRyN72ygQK-45" value="" style="curved=1;endArrow=classic;html=1;rounded=0;" edge="1" parent="1">
          <mxGeometry width="50" height="50" relative="1" as="geometry">
            <mxPoint x="285" y="1470" as="sourcePoint" />
            <mxPoint x="275" y="1450" as="targetPoint" />
            <Array as="points">
              <mxPoint x="295" y="1480" />
              <mxPoint x="335" y="1450" />
              <mxPoint x="305" y="1450" />
              <mxPoint x="275" y="1450" />
              <mxPoint x="285" y="1450" />
            </Array>
          </mxGeometry>
        </mxCell>
        <mxCell id="MnAWivIZl3yRyN72ygQK-46" value="&lt;span style=&quot;color: rgb(0, 0, 0); font-family: Helvetica; font-size: 12px; font-style: normal; font-variant-ligatures: normal; font-variant-caps: normal; font-weight: 400; letter-spacing: normal; orphans: 2; text-align: center; text-indent: 0px; text-transform: none; widows: 2; word-spacing: 0px; -webkit-text-stroke-width: 0px; white-space: nowrap; background-color: rgb(236, 236, 236); text-decoration-thickness: initial; text-decoration-style: initial; text-decoration-color: initial; display: inline !important; float: none;&quot;&gt;ValidatePassword: returns True&lt;/span&gt;" style="text;whiteSpace=wrap;html=1;" vertex="1" parent="1">
          <mxGeometry x="80" y="1350" width="200" height="40" as="geometry" />
        </mxCell>
        <mxCell id="MnAWivIZl3yRyN72ygQK-47" value="&lt;span style=&quot;color: rgb(0, 0, 0); font-family: Helvetica; font-size: 12px; font-style: normal; font-variant-ligatures: normal; font-variant-caps: normal; font-weight: 400; letter-spacing: normal; orphans: 2; text-align: center; text-indent: 0px; text-transform: none; widows: 2; word-spacing: 0px; -webkit-text-stroke-width: 0px; white-space: nowrap; background-color: rgb(236, 236, 236); text-decoration-thickness: initial; text-decoration-style: initial; text-decoration-color: initial; display: inline !important; float: none;&quot;&gt;ValidateEmail: returns True&lt;/span&gt;" style="text;whiteSpace=wrap;html=1;" vertex="1" parent="1">
          <mxGeometry x="105" y="1390" width="200" height="40" as="geometry" />
        </mxCell>
        <mxCell id="MnAWivIZl3yRyN72ygQK-48" value="&lt;span style=&quot;color: rgb(0, 0, 0); font-family: Helvetica; font-size: 12px; font-style: normal; font-variant-ligatures: normal; font-variant-caps: normal; font-weight: 400; letter-spacing: normal; orphans: 2; text-align: center; text-indent: 0px; text-transform: none; widows: 2; word-spacing: 0px; -webkit-text-stroke-width: 0px; white-space: nowrap; background-color: rgb(236, 236, 236); text-decoration-thickness: initial; text-decoration-style: initial; text-decoration-color: initial; display: inline !important; float: none;&quot;&gt;confirmPassword: returns False&lt;/span&gt;" style="text;whiteSpace=wrap;html=1;" vertex="1" parent="1">
          <mxGeometry x="90" y="1430" width="180" height="40" as="geometry" />
        </mxCell>
        <mxCell id="MnAWivIZl3yRyN72ygQK-49" value="" style="endArrow=classic;html=1;rounded=0;" edge="1" parent="1">
          <mxGeometry width="50" height="50" relative="1" as="geometry">
            <mxPoint x="225" y="1460" as="sourcePoint" />
            <mxPoint x="275" y="1470" as="targetPoint" />
          </mxGeometry>
        </mxCell>
        <mxCell id="MnAWivIZl3yRyN72ygQK-50" value="" style="endArrow=classic;html=1;rounded=0;" edge="1" parent="1">
          <mxGeometry width="50" height="50" relative="1" as="geometry">
            <mxPoint x="230" y="1370" as="sourcePoint" />
            <mxPoint x="280" y="1380" as="targetPoint" />
          </mxGeometry>
        </mxCell>
        <mxCell id="MnAWivIZl3yRyN72ygQK-51" value="" style="endArrow=classic;html=1;rounded=0;" edge="1" parent="1">
          <mxGeometry width="50" height="50" relative="1" as="geometry">
            <mxPoint x="230" y="1420" as="sourcePoint" />
            <mxPoint x="280" y="1430" as="targetPoint" />
          </mxGeometry>
        </mxCell>
        <mxCell id="MnAWivIZl3yRyN72ygQK-52" value="" style="endArrow=classic;html=1;rounded=0;" edge="1" parent="1">
          <mxGeometry width="50" height="50" relative="1" as="geometry">
            <mxPoint x="230" y="1130" as="sourcePoint" />
            <mxPoint x="280" y="1140" as="targetPoint" />
          </mxGeometry>
        </mxCell>
        <mxCell id="MnAWivIZl3yRyN72ygQK-53" value="" style="endArrow=classic;html=1;rounded=0;" edge="1" parent="1">
          <mxGeometry width="50" height="50" relative="1" as="geometry">
            <mxPoint x="230" y="1170" as="sourcePoint" />
            <mxPoint x="280" y="1180" as="targetPoint" />
          </mxGeometry>
        </mxCell>
        <mxCell id="MnAWivIZl3yRyN72ygQK-54" value="" style="endArrow=classic;html=1;rounded=0;" edge="1" parent="1">
          <mxGeometry width="50" height="50" relative="1" as="geometry">
            <mxPoint x="225" y="900" as="sourcePoint" />
            <mxPoint x="275" y="910" as="targetPoint" />
          </mxGeometry>
        </mxCell>
      </root>
    </mxGraphModel>
  </diagram>
</mxfile>
